<svg width="13" height="13" viewBox="0 0 13 13" fill="none" xmlns="http://www.w3.org/2000/svg">
<path d="M4.60419 4.875C4.3887 4.875 4.18204 4.9606 4.02966 5.11298C3.87729 5.26535 3.79169 5.47201 3.79169 5.6875C3.79169 5.90299 3.87729 6.10965 4.02966 6.26202C4.18204 6.4144 4.3887 6.5 4.60419 6.5C4.81968 6.5 5.02634 6.4144 5.17871 6.26202C5.33108 6.10965 5.41669 5.90299 5.41669 5.6875C5.41669 5.47201 5.33108 5.26535 5.17871 5.11298C5.02634 4.9606 4.81968 4.875 4.60419 4.875ZM8.39585 4.875C7.94627 4.875 7.58335 5.23792 7.58335 5.6875C7.58335 6.13708 7.94627 6.5 8.39585 6.5C8.84544 6.5 9.20835 6.13708 9.20835 5.6875C9.20835 5.23792 8.84544 4.875 8.39585 4.875Z" fill="#C9B9C9"/>
<path d="M6.49998 1.08334C3.5154 1.08334 1.08331 3.51543 1.08331 6.50001C1.08331 9.48459 3.5154 11.9167 6.49998 11.9167C9.48456 11.9167 11.9166 9.48459 11.9166 6.50001C11.9166 3.51543 9.48456 1.08334 6.49998 1.08334ZM6.49998 10.8333C4.11123 10.8333 2.16665 8.88876 2.16665 6.50001C2.16665 4.11126 4.11123 2.16668 6.49998 2.16668C8.88873 2.16668 10.8333 4.11126 10.8333 6.50001C10.8333 8.88876 8.88873 10.8333 6.49998 10.8333Z" fill="#C9B9C9"/>
<path d="M8.03291 8.03292C7.73486 8.33395 7.35398 8.53948 6.93874 8.62333C6.50801 8.71138 6.06076 8.66797 5.65499 8.49875C5.39711 8.39054 5.16328 8.2322 4.96707 8.03292C4.86957 7.93542 4.78291 7.82708 4.70166 7.71333L3.80249 8.32C3.92166 8.49333 4.05166 8.65583 4.19791 8.79667C4.34416 8.94292 4.50666 9.07833 4.67999 9.19208C4.85332 9.30583 5.03749 9.40875 5.23249 9.49C5.42749 9.57125 5.63332 9.63625 5.84457 9.67958C6.27713 9.76713 6.72285 9.76713 7.15541 9.67958C7.36124 9.63625 7.56707 9.57125 7.76749 9.49C7.96249 9.40875 8.14666 9.30583 8.31999 9.19208C8.49332 9.07833 8.65582 8.94292 8.80207 8.79667C8.94832 8.65042 9.08374 8.48792 9.19749 8.31458L8.29832 7.70792C8.22249 7.82167 8.13041 7.93 8.03291 8.0275V8.03292Z" fill="#C9B9C9"/>
</svg>
