<svg width="70" height="66" viewBox="0 0 70 66" fill="none" xmlns="http://www.w3.org/2000/svg">
<path fill-rule="evenodd" clip-rule="evenodd" d="M27.223 66H42.777C53.7005 66 59.164 66 63.0875 63.305C64.7809 62.1432 66.239 60.643 67.3785 58.8904C70 54.857 70 49.236 70 38.0014C70 26.7668 70 21.1458 67.3785 17.1125C66.239 15.3598 64.7809 13.8596 63.0875 12.6978C60.5675 10.9635 57.4105 10.3438 52.577 10.1238C50.2705 10.1238 48.286 8.32715 47.8345 5.99882C47.4895 4.29334 46.5929 2.76496 45.2965 1.67199C44 0.57901 42.3831 -0.011531 40.719 0.000170613H29.281C25.823 0.000170613 22.8445 2.51183 22.1655 5.99882C21.714 8.32715 19.7295 10.1238 17.423 10.1238C12.593 10.3438 9.436 10.9671 6.9125 12.6978C5.22038 13.86 3.76346 15.3601 2.625 17.1125C0 21.1458 0 26.7631 0 38.0014C0 49.2397 1.98682e-07 54.8534 2.6215 58.8904C3.7555 60.6357 5.2115 62.1353 6.9125 63.305C10.836 66 16.2995 66 27.223 66ZM35 23.0011C26.9465 23.0011 20.4155 29.7148 20.4155 37.9977C20.4155 46.2807 26.95 53.0054 35 53.0054C43.05 53.0054 49.5845 46.2881 49.5845 38.0051C49.5845 29.7221 43.05 23.0011 35 23.0011ZM35 28.9998C30.17 28.9998 26.25 33.0294 26.25 38.0014C26.25 42.9697 30.17 46.9994 35 46.9994C39.83 46.9994 43.75 42.9697 43.75 38.0014C43.75 33.0331 39.83 28.9998 35 28.9998ZM51.527 26.0004C51.527 24.3431 52.8325 23.0011 54.446 23.0011H58.331C59.941 23.0011 61.25 24.3431 61.25 26.0004C61.2426 26.8031 60.9314 27.5698 60.3847 28.1322C59.8381 28.6946 59.1006 29.0066 58.3345 28.9998H54.446C54.0663 29.0036 53.6897 28.9291 53.3375 28.7805C52.9853 28.6318 52.6646 28.412 52.3935 28.1335C52.1225 27.855 51.9064 27.5232 51.7577 27.1572C51.6091 26.7913 51.5307 26.3982 51.527 26.0004Z" fill="#4B164C" fill-opacity="0.5"/>
</svg>
