<svg width="62" height="48" viewBox="0 0 62 48" fill="none" xmlns="http://www.w3.org/2000/svg">
<g opacity="0.5">
<path d="M31 16.354C31.5374 15.7447 32.2477 15.3135 33.0362 15.1178C33.8247 14.9221 34.6542 14.9711 35.4142 15.2584C36.1741 15.5457 36.8286 16.0576 37.2905 16.726C37.7524 17.3943 37.9998 18.1875 37.9998 19C37.9998 19.8125 37.7524 20.6057 37.2905 21.274C36.8286 21.9424 36.1741 22.4543 35.4142 22.7416C34.6542 23.0289 33.8247 23.0779 33.0362 22.8822C32.2477 22.6865 31.5374 22.2553 31 21.646M34 33H22V32C22 30.4087 22.6321 28.8826 23.7574 27.7574C24.8826 26.6321 26.4087 26 28 26C29.5913 26 31.1174 26.6321 32.2426 27.7574C33.3679 28.8826 34 30.4087 34 32V33ZM34 33H40V32C40.0001 30.9467 39.723 29.9119 39.1965 28.9997C38.6699 28.0875 37.9125 27.3299 37.0004 26.8032C36.0882 26.2765 35.0535 25.9992 34.0002 25.9992C32.9469 25.9991 31.9122 26.2764 31 26.803M32 19C32 20.0609 31.5786 21.0783 30.8284 21.8284C30.0783 22.5786 29.0609 23 28 23C26.9391 23 25.9217 22.5786 25.1716 21.8284C24.4214 21.0783 24 20.0609 24 19C24 17.9391 24.4214 16.9217 25.1716 16.1716C25.9217 15.4214 26.9391 15 28 15C29.0609 15 30.0783 15.4214 30.8284 16.1716C31.5786 16.9217 32 17.9391 32 19Z" stroke="#4B164C" stroke-width="2" stroke-linecap="round" stroke-linejoin="round"/>
</g>
</svg>
